<?xml version="1.0" encoding="UTF-8"?>
<svg width="1946px" height="96px" viewBox="0 0 1946 96" version="1.1" xmlns="http://www.w3.org/2000/svg" xmlns:xlink="http://www.w3.org/1999/xlink">
    <title>编组 13</title>
    <defs>
        <rect id="path-1" x="0" y="0" width="1920" height="68"></rect>
        <filter x="-1.4%" y="-19.1%" width="102.7%" height="176.5%" filterUnits="objectBoundingBox" id="filter-2">
            <feOffset dx="0" dy="13" in="SourceAlpha" result="shadowOffsetOuter1"></feOffset>
            <feGaussianBlur stdDeviation="6.5" in="shadowOffsetOuter1" result="shadowBlurOuter1"></feGaussianBlur>
            <feColorMatrix values="0 0 0 0 0.00784313725   0 0 0 0 0.0784313725   0 0 0 0 0.145098039  0 0 0 0.2 0" type="matrix" in="shadowBlurOuter1"></feColorMatrix>
        </filter>
        <linearGradient x1="2.22044843e-14%" y1="100.099254%" x2="100%" y2="100.099254%" id="linearGradient-3">
            <stop stop-color="#34FDFD" stop-opacity="0" offset="0%"></stop>
            <stop stop-color="#30B1E9" offset="42.8578556%"></stop>
            <stop stop-color="#34FDFD" stop-opacity="0.3" offset="100%"></stop>
        </linearGradient>
        <linearGradient x1="39.8969829%" y1="0.392078236%" x2="39.8969829%" y2="100.392079%" id="linearGradient-4">
            <stop stop-color="#000000" offset="0%"></stop>
            <stop stop-color="#17395F" offset="54.2888105%"></stop>
            <stop stop-color="#245592" offset="100%"></stop>
        </linearGradient>
        <rect id="path-5" x="0" y="0" width="667" height="84"></rect>
        <filter x="-0.1%" y="-1.2%" width="100.3%" height="102.4%" filterUnits="objectBoundingBox" id="filter-6">
            <feOffset dx="0" dy="-2" in="SourceAlpha" result="shadowOffsetInner1"></feOffset>
            <feComposite in="shadowOffsetInner1" in2="SourceAlpha" operator="arithmetic" k2="-1" k3="1" result="shadowInnerInner1"></feComposite>
            <feColorMatrix values="0 0 0 0 0.149019608   0 0 0 0 0.784313725   0 0 0 0 0.890196078  0 0 0 1 0" type="matrix" in="shadowInnerInner1"></feColorMatrix>
        </filter>
        <linearGradient x1="-429.328537%" y1="0.392078236%" x2="-429.328537%" y2="100.392079%" id="linearGradient-7">
            <stop stop-color="#000000" offset="0%"></stop>
            <stop stop-color="#17395F" offset="54.2888105%"></stop>
            <stop stop-color="#245592" offset="100%"></stop>
        </linearGradient>
        <linearGradient x1="-236.859322%" y1="4.97686067e-12%" x2="-236.859322%" y2="100%" id="linearGradient-8">
            <stop stop-color="#28C3DF" stop-opacity="0" offset="0%"></stop>
            <stop stop-color="#26C7E3" offset="100%"></stop>
        </linearGradient>
    </defs>
    <g id="海利/svg" stroke="none" stroke-width="1" fill="none" fill-rule="evenodd">
        <g id="头部标题备份-2" transform="translate(-14.000000, -2454.000000)">
            <g id="编组-13" transform="translate(27.000000, 2456.000000)">
                <path d="M0,0 L1920,0 L1920,68 L0,68 L0,0 Z" id="路径"></path>
                <g id="头部">
                    <use fill="black" fill-opacity="1" filter="url(#filter-2)" xlink:href="#path-1"></use>
                    <use fill="#050F11" fill-rule="evenodd" xlink:href="#path-1"></use>
                </g>
                <path d="M266,66 L1920,66 L1920,68 L266,68 L266,66 Z" id="Rectangle-32" fill="url(#linearGradient-3)"></path>
                <path d="M2.27373675e-13,0 L1904.04456,0 L1904.04456,66 L2.27373675e-13,66 L2.27373675e-13,0 Z" id="路径"></path>
                <path d="M2.27373675e-13,0 L1904.04456,0 L1904.04456,66 L2.27373675e-13,66 L2.27373675e-13,0 Z" id="Frame-10272"></path>
                <path d="M0,0 L752.5,0 L752.5,66 L0,66 L0,0 Z" id="路径"></path>
                <path d="M0,0 L752.5,0 L752.5,66 L0,66 L0,0 Z" id="Frame-630"></path>
                <path d="M0,0 L752.5,0 L752.5,84.0000992 L0,84.0000992 L0,0 Z" id="路径"></path>
                <path d="M0,0 L752.5,0 L752.5,84.0000992 L0,84.0000992 L0,0 Z" id="Frame-662"></path>
                <path d="M0,0 L667,0 L667,84.0000992 L0,84.0000992 L0,0 Z" id="路径"></path>
                <path d="M0,0 L667,0 L667,84.0000992 L0,84.0000992 L0,0 Z" id="Frame-661"></path>
                <path d="M0,0 L667,0 L667,84 L0,84 L0,0 Z" id="路径"></path>
                <g id="Frame-657">
                    <use fill="url(#linearGradient-4)" fill-rule="evenodd" xlink:href="#path-5"></use>
                    <use fill="black" fill-opacity="1" filter="url(#filter-6)" xlink:href="#path-5"></use>
                </g>
                <g id="Frame-660" transform="translate(267.172852, 84.000000)">
                    <path d="M0,0 L132.654572,0 L132.654572,1 L0,1 L0,0 Z" id="路径"></path>
                    <path d="M0,0 L132.654572,0 L132.654572,1 L0,1 L0,0 Z"></path>
                    <path d="M0,0.997998047 L132.65,0.997998047 L128.85,-3.80200195 L5.4,-3.80200195 L0,0.997998047 Z" id="路径" fill="#15F6EE"></path>
                </g>
                <g id="Frame-659" transform="translate(667.000000, 0.000000)">
                    <path d="M0,0 L85.5,0 L85.5,84 L0,84 L0,0 Z" id="路径"></path>
                    <path d="M0,0 L85.5,0 L85.5,84 L0,84 L0,0 Z"></path>
                    <path d="M0,84 L4.1,84 C23.46,84 41.39,73.83 51.32,57.21 L85.5,0 C-149.15,0 234.65,0 0,0 L0,84 Z" id="路径" fill="url(#linearGradient-7)"></path>
                    <path d="M-47.9936523,83.9990283 L-47.9936523,81.9990283 L5.13634766,81.9990283 C24.1263477,81.9990283 41.7163477,72.0190283 51.4663477,55.7190283 L51.4663477,55.7190283 L85.6463477,-1.38097168 L87.3663477,-0.36097168 L53.1863477,56.7590283 C43.0763477,73.6590283 24.8263477,83.9990283 5.13634766,83.9990283 L5.13634766,83.9990283 L-47.9936523,83.9990283 Z" id="Rectangle-36" fill="url(#linearGradient-8)"></path>
                </g>
            </g>
        </g>
    </g>
</svg>